<svg aria-hidden="true" style="width:0;height:0;position:absolute;overflow:hidden" xmlns="http://www.w3.org/2000/svg"><defs><symbol id="icon-pagi-next" viewBox="0 0 18 32"><path d="M12.343 17.622a2.279 2.279 0 0 0 .676-1.623 2.287 2.287 0 0 0-.676-1.623L1.852 3.907a2.279 2.279 0 0 1-.676-1.623A2.284 2.284 0 0 1 1.852.661a2.285 2.285 0 0 1 3.222 0l10.491 10.491a6.859 6.859 0 0 1 0 9.692L5.074 31.335a2.289 2.289 0 0 1-3.898-1.623 2.29 2.29 0 0 1 .676-1.623l10.491-10.468z"/></symbol><symbol id="icon-pagi-prev" viewBox="0 0 18 32"><path d="M5.943 17.622a2.279 2.279 0 0 1-.676-1.623 2.284 2.284 0 0 1 .676-1.623L16.434 3.907a2.279 2.279 0 0 0 .676-1.623 2.284 2.284 0 0 0-.676-1.623 2.285 2.285 0 0 0-3.222 0L2.721 11.152a6.859 6.859 0 0 0 0 9.692l10.491 10.491a2.289 2.289 0 0 0 3.898-1.623 2.287 2.287 0 0 0-.676-1.623L5.943 17.621z"/></symbol></defs></svg>