<svg aria-hidden="true" style="position: absolute; width: 0; height: 0; overflow: hidden;" version="1.1" xmlns="http://www.w3.org/2000/svg" xmlns:xlink="http://www.w3.org/1999/xlink">
<defs>
<symbol id="icon-pagi-next" viewBox="0 0 18 32">
<path d="M12.343 17.622c0.214-0.212 0.384-0.465 0.5-0.744s0.176-0.577 0.176-0.879c0-0.302-0.060-0.6-0.176-0.879s-0.286-0.531-0.5-0.744l-10.491-10.469c-0.214-0.212-0.384-0.465-0.5-0.744s-0.176-0.577-0.176-0.879c0-0.302 0.060-0.601 0.176-0.879s0.286-0.531 0.5-0.744c0.428-0.426 1.008-0.665 1.611-0.665s1.183 0.239 1.611 0.665l10.491 10.491c1.284 1.286 2.005 3.029 2.005 4.846s-0.721 3.56-2.005 4.846l-10.491 10.491c-0.426 0.422-1 0.66-1.6 0.663-0.301 0.002-0.599-0.056-0.877-0.17s-0.532-0.281-0.745-0.493c-0.214-0.212-0.384-0.465-0.5-0.744s-0.176-0.577-0.176-0.879c0-0.302 0.060-0.6 0.176-0.879s0.286-0.531 0.5-0.744l10.491-10.468z"></path>
</symbol>
<symbol id="icon-pagi-prev" viewBox="0 0 18 32">
<path d="M5.943 17.622c-0.214-0.212-0.384-0.465-0.5-0.744s-0.176-0.577-0.176-0.879c0-0.302 0.060-0.601 0.176-0.879s0.286-0.531 0.5-0.744l10.491-10.469c0.214-0.212 0.384-0.465 0.5-0.744s0.176-0.577 0.176-0.879c0-0.302-0.060-0.601-0.176-0.879s-0.286-0.531-0.5-0.744c-0.428-0.426-1.008-0.665-1.611-0.665s-1.183 0.239-1.611 0.665l-10.491 10.491c-1.284 1.286-2.005 3.029-2.005 4.846s0.721 3.56 2.005 4.846l10.491 10.491c0.426 0.422 1 0.66 1.6 0.663 0.301 0.002 0.599-0.056 0.877-0.17s0.532-0.281 0.745-0.493c0.214-0.212 0.384-0.465 0.5-0.744s0.176-0.577 0.176-0.879c0-0.302-0.060-0.6-0.176-0.879s-0.286-0.531-0.5-0.744l-10.491-10.468z"></path>
</symbol>
</defs>
</svg>
